<svg width="160" height="80" viewBox="0 0 160 80" fill="none" xmlns="http://www.w3.org/2000/svg">
<path d="M24.1607 79.6003L24.121 64.5453L16.7816 76.9576H14.2028L6.86338 64.8255V79.6003H1.4679V54.4152H6.22862L15.5914 70.0708L24.7954 54.4152H29.5562L29.5958 79.6003H24.1607Z" fill="#359C31"/>
<path d="M55.1054 74.9149V79.5996H35.7848V54.4144H54.6293V59.0991H41.5373V64.5445H53.1218V69.069H41.5373V74.8748H55.1054V74.9149Z" fill="#359C31"/>
<path d="M59.7472 54.4144H79.8613V59.0591H65.4601V64.2242H72.3631C78.3934 64.2242 81.6068 66.8268 81.6068 71.6316C81.6068 76.6766 77.957 79.5595 71.53 79.5595H59.7075V54.4144H59.7472ZM71.2523 75.2752C74.2277 75.2752 75.8146 74.074 75.8146 71.8318C75.8146 69.5896 74.2674 68.5085 71.2523 68.5085H65.4997V75.2752H71.2523Z" fill="#359C31"/>
<path d="M105.331 74.9149V79.5996H86.0105V54.4144H104.855V59.0991H91.763V64.5445H103.347V69.069H91.763V74.8748H105.331V74.9149Z" fill="#359C31"/>
<path d="M133.419 54.4144V79.5996H127.746V59.1792H119.217L119.058 64.4244C118.74 74.3143 117.352 80 111.52 80C110.647 80 109.735 79.8398 108.664 79.5996L109.021 74.6746C109.378 74.7948 109.695 74.8348 110.052 74.8348C112.988 74.8348 113.702 71.1111 113.98 64.6647L114.337 54.4545H133.419V54.4144Z" fill="#359C31"/>
<path d="M160 70.8308C160 76.6366 156.152 79.5996 149.725 79.5996H138.458V54.4144H144.21V62.7027H150.558C156.588 62.7027 160 65.3854 160 70.8308ZM154.168 70.9109C154.168 68.1481 152.383 66.987 149.407 66.987H144.21V75.2752H149.407C152.383 75.2752 154.168 73.7537 154.168 70.9109Z" fill="#359C31"/>
<path d="M63.6746 5.32531L57.9221 13.3733L53.5184 14.0941L51.6141 16.8168C50.8603 16.2963 50.0669 15.8158 49.1941 15.4154L51.2967 12.4524L50.5826 8.00799L56.3749 0L58.3188 5.04503L63.6746 5.32531Z" fill="#359C31"/>
<path d="M24.7161 19.86H15.5914V43.2033H9.08505V19.86H0V14.4146H24.7161V19.86Z" fill="white"/>
<path d="M51.6142 16.857L48.123 21.902C49.9082 23.5437 50.9794 25.9461 50.9794 28.8289C50.9794 34.3144 47.1311 38.0381 42.053 38.0381C36.9749 38.0381 33.1267 34.3144 33.1267 28.8289C33.1267 23.3435 36.9749 19.6198 42.053 19.6198C43.3622 19.6198 44.5921 19.86 45.7029 20.3405L49.1941 15.4556C47.0915 14.4946 44.6714 13.9341 42.053 13.9341C33.0473 13.9341 26.4617 20.2604 26.4617 28.8289C26.4617 37.3975 33.0473 43.7238 42.053 43.7238C51.0191 43.7238 57.6444 37.4375 57.6444 28.8289C57.6444 23.7439 55.3434 19.4996 51.6142 16.857Z" fill="#359C31"/>
<path d="M85.574 14.4146V43.2033H79.0677V32.8329C76.5683 33.7538 74.307 34.1943 72.2043 34.1943C64.5475 34.1943 60.3422 30.3905 60.3422 23.4235V14.4146H66.8485V22.6628C66.8485 26.6267 68.9908 28.6287 72.9581 28.6287C75.1004 28.6287 77.2427 28.1883 79.0677 27.3475V14.4146H85.574Z" fill="white"/>
<path d="M118.78 14.4146V43.2033H112.194V31.3915H99.2611V43.2033H92.6754V14.4146H99.2611V25.7459H112.194V14.4146H118.78Z" fill="white"/>
<path d="M123.898 28.8289C123.898 20.2604 130.484 13.9341 139.489 13.9341C148.455 13.9341 155.081 20.2204 155.081 28.8289C155.081 37.4375 148.455 43.7238 139.489 43.7238C130.523 43.6838 123.898 37.3574 123.898 28.8289ZM148.416 28.8289C148.416 23.3435 144.607 19.6198 139.489 19.6198C134.371 19.6198 130.563 23.3435 130.563 28.8289C130.563 34.3144 134.371 38.0381 139.489 38.0381C144.607 38.0381 148.416 34.2744 148.416 28.8289Z" fill="white"/>
<path d="M42.0571 31.9752C43.8623 31.9752 45.3257 30.5634 45.3257 28.8219C45.3257 27.0804 43.8623 25.6686 42.0571 25.6686C40.252 25.6686 38.7886 27.0804 38.7886 28.8219C38.7886 30.5634 40.252 31.9752 42.0571 31.9752Z" fill="white"/>
</svg>
