<svg width="20" height="20" viewBox="0 0 20 20" fill="none" xmlns="http://www.w3.org/2000/svg">
<path fill-rule="evenodd" clip-rule="evenodd" d="M10.001 0.400146C7.39382 0.400146 7.06662 0.411547 6.04261 0.458147C5.02059 0.504948 4.32299 0.666749 3.71258 0.904152C3.08117 1.14935 2.54557 1.47736 2.01196 2.01116C1.47796 2.54477 1.14995 3.08037 0.903952 3.71158C0.665949 4.32219 0.503948 5.01999 0.457947 6.04161C0.412147 7.06562 0.400146 7.39302 0.400146 10.0002C0.400146 12.6075 0.411747 12.9337 0.458147 13.9577C0.505148 14.9797 0.666949 15.6773 0.904152 16.2877C1.14955 16.9191 1.47756 17.4547 2.01136 17.9883C2.54477 18.5223 3.08037 18.8511 3.71138 19.0963C4.32219 19.3337 5.01999 19.4955 6.04181 19.5423C7.06582 19.5889 7.39282 19.6003 9.99985 19.6003C12.6073 19.6003 12.9335 19.5889 13.9575 19.5423C14.9795 19.4955 15.6779 19.3337 16.2887 19.0963C16.9199 18.8511 17.4547 18.5223 17.9881 17.9883C18.5221 17.4547 18.8501 16.9191 19.0961 16.2879C19.3321 15.6773 19.4941 14.9795 19.5421 13.9579C19.5881 12.9339 19.6001 12.6075 19.6001 10.0002C19.6001 7.39302 19.5881 7.06582 19.5421 6.04181C19.4941 5.01979 19.3321 4.32219 19.0961 3.71178C18.8501 3.08037 18.5221 2.54477 17.9881 2.01116C17.4541 1.47716 16.9201 1.14915 16.2881 0.904152C15.6761 0.666749 14.9781 0.504948 13.9561 0.458147C12.9321 0.411547 12.6061 0.400146 9.99805 0.400146H10.001ZM9.14022 2.12935C9.39582 2.12895 9.68103 2.12935 10.0014 2.12935C12.5647 2.12935 12.8685 2.13855 13.8807 2.18455C14.8167 2.22735 15.3247 2.38376 15.6631 2.51516C16.1111 2.68916 16.4305 2.89716 16.7663 3.23316C17.1023 3.56917 17.3103 3.88917 17.4847 4.33718C17.6161 4.67518 17.7727 5.18319 17.8153 6.11919C17.8613 7.13121 17.8713 7.43521 17.8713 9.99724C17.8713 12.5593 17.8613 12.8633 17.8153 13.8753C17.7725 14.8113 17.6161 15.3193 17.4847 15.6573C17.3107 16.1053 17.1023 16.4243 16.7663 16.7601C16.4303 17.0961 16.1113 17.3041 15.6631 17.4781C15.3251 17.6101 14.8167 17.7661 13.8807 17.8089C12.8687 17.8549 12.5647 17.8649 10.0014 17.8649C7.438 17.8649 7.1342 17.8549 6.12219 17.8089C5.18618 17.7657 4.67817 17.6093 4.33957 17.4779C3.89157 17.3039 3.57156 17.0959 3.23556 16.7599C2.89956 16.4239 2.69155 16.1047 2.51715 15.6565C2.38575 15.3185 2.22915 14.8105 2.18655 13.8745C2.14055 12.8625 2.13135 12.5585 2.13135 9.99484C2.13135 7.43121 2.14055 7.12881 2.18655 6.11679C2.22935 5.18078 2.38575 4.67278 2.51715 4.33438C2.69115 3.88637 2.89956 3.56637 3.23556 3.23036C3.57156 2.89436 3.89157 2.68636 4.33957 2.51196C4.67797 2.37996 5.18618 2.22395 6.12219 2.18095C7.0078 2.14095 7.351 2.12895 9.14022 2.12695V2.12935ZM15.1244 3.72477C14.4884 3.72477 13.9724 4.24017 13.9724 4.87638C13.9724 5.51238 14.4884 6.02839 15.1244 6.02839C15.7604 6.02839 16.2764 5.51238 16.2764 4.87638C16.2764 4.24037 15.7604 3.72437 15.1244 3.72437V3.72477ZM10.0013 5.06909C7.27871 5.06909 5.07129 7.27651 5.07129 9.99914C5.07129 12.7218 7.27871 14.9282 10.0013 14.9282C12.724 14.9282 14.9306 12.7218 14.9306 9.99914C14.9306 7.27651 12.7238 5.06909 10.0011 5.06909H10.0013ZM10.0006 6.80054C11.7678 6.80054 13.2006 8.23315 13.2006 10.0006C13.2006 11.7678 11.7678 13.2006 10.0006 13.2006C8.23315 13.2006 6.80054 11.7678 6.80054 10.0006C6.80054 8.23315 8.23315 6.80054 10.0006 6.80054V6.80054Z" fill="white"/>
</svg>
