<svg width="32" height="32" viewBox="0 0 32 32" fill="none" xmlns="http://www.w3.org/2000/svg">
<mask id="mask0_1_4831" style="mask-type:alpha" maskUnits="userSpaceOnUse" x="0" y="0" width="32" height="32">
<path fill-rule="evenodd" clip-rule="evenodd" d="M0 16C0 7.16344 7.16344 0 16 0C24.8366 0 32 7.16344 32 16C32 24.8366 24.8366 32 16 32C7.16344 32 0 24.8366 0 16Z" fill="white"/>
</mask>
<g mask="url(#mask0_1_4831)">
<path fill-rule="evenodd" clip-rule="evenodd" d="M0 16C0 7.16344 7.16344 0 16 0C24.8366 0 32 7.16344 32 16C32 24.8366 24.8366 32 16 32C7.16344 32 0 24.8366 0 16Z" fill="#359C31"/>
<path fill-rule="evenodd" clip-rule="evenodd" d="M16.0008 7.46667C13.6833 7.46667 13.3924 7.47681 12.4822 7.51823C11.5737 7.55983 10.9536 7.70366 10.4111 7.91468C9.84981 8.13264 9.37372 8.4242 8.8994 8.89869C8.42473 9.37301 8.13317 9.8491 7.9145 10.4102C7.70294 10.9529 7.55894 11.5732 7.51805 12.4813C7.47734 13.3915 7.46667 13.6826 7.46667 16.0001C7.46667 18.3176 7.47699 18.6076 7.51823 19.5178C7.56001 20.4263 7.70383 21.0464 7.91468 21.589C8.13282 22.1502 8.42437 22.6263 8.89887 23.1006C9.37301 23.5753 9.8491 23.8676 10.41 24.0855C10.9529 24.2965 11.5732 24.4404 12.4815 24.482C13.3917 24.5234 13.6824 24.5335 15.9997 24.5335C18.3175 24.5335 18.6074 24.5234 19.5176 24.482C20.4261 24.4404 21.0469 24.2965 21.5898 24.0855C22.1509 23.8676 22.6263 23.5753 23.1004 23.1006C23.5751 22.6263 23.8667 22.1502 24.0853 21.5891C24.2951 21.0464 24.4391 20.4261 24.4818 19.518C24.5227 18.6078 24.5333 18.3176 24.5333 16.0001C24.5333 13.6826 24.5227 13.3917 24.4818 12.4815C24.4391 11.573 24.2951 10.9529 24.0853 10.4103C23.8667 9.8491 23.5751 9.37301 23.1004 8.89869C22.6258 8.42402 22.1511 8.13246 21.5893 7.91468C21.0453 7.70366 20.4249 7.55983 19.5164 7.51823C18.6062 7.47681 18.3164 7.46667 15.9981 7.46667H16.0008ZM15.2354 9.0046C15.4626 9.00424 15.7162 9.0046 16.001 9.0046C18.2794 9.0046 18.5494 9.01278 19.4492 9.05367C20.2812 9.09171 20.7327 9.23073 21.0335 9.34754C21.4318 9.5022 21.7157 9.6871 22.0142 9.98576C22.3128 10.2844 22.4977 10.5689 22.6528 10.9671C22.7696 11.2676 22.9088 11.7191 22.9466 12.5511C22.9875 13.4507 22.9964 13.7209 22.9964 15.9983C22.9964 18.2756 22.9875 18.5459 22.9466 19.4454C22.9086 20.2774 22.7696 20.729 22.6528 21.0294C22.4981 21.4277 22.3128 21.7112 22.0142 22.0097C21.7155 22.3084 21.4319 22.4933 21.0335 22.6479C20.7331 22.7653 20.2812 22.9039 19.4492 22.942C18.5496 22.9829 18.2794 22.9918 16.001 22.9918C13.7224 22.9918 13.4523 22.9829 12.5527 22.942C11.7207 22.9036 11.2692 22.7646 10.9682 22.6478C10.57 22.4931 10.2855 22.3082 9.98685 22.0095C9.68818 21.7109 9.50329 21.4271 9.34827 21.0287C9.23147 20.7283 9.09226 20.2767 9.0544 19.4447C9.01351 18.5451 9.00533 18.2749 9.00533 15.9961C9.00533 13.7174 9.01351 13.4486 9.0544 12.549C9.09244 11.717 9.23147 11.2654 9.34827 10.9646C9.50294 10.5664 9.68818 10.2819 9.98685 9.98328C10.2855 9.68461 10.57 9.49972 10.9682 9.34469C11.269 9.22736 11.7207 9.08869 12.5527 9.05047C13.34 9.01491 13.645 9.00424 15.2354 9.00247V9.0046ZM20.556 10.4214C19.9907 10.4214 19.532 10.8796 19.532 11.4451C19.532 12.0104 19.9907 12.4691 20.556 12.4691C21.1214 12.4691 21.58 12.0104 21.58 11.4451C21.58 10.8798 21.1214 10.4211 20.556 10.4211V10.4214ZM16.0009 11.618C13.5808 11.618 11.6186 13.5801 11.6186 16.0002C11.6186 18.4203 13.5808 20.3816 16.0009 20.3816C18.421 20.3816 20.3824 18.4203 20.3824 16.0002C20.3824 13.5801 18.4208 11.618 16.0007 11.618H16.0009ZM16.001 13.1557C17.5718 13.1557 18.8455 14.4292 18.8455 16.0002C18.8455 17.5711 17.5718 18.8447 16.001 18.8447C14.4299 18.8447 13.1565 17.5711 13.1565 16.0002C13.1565 14.4292 14.4299 13.1557 16.001 13.1557Z" fill="white"/>
</g>
</svg>
