<svg width="36" height="36" viewBox="0 0 36 36" fill="none" xmlns="http://www.w3.org/2000/svg">
<mask id="mask0_1_3084" style="mask-type:alpha" maskUnits="userSpaceOnUse" x="0" y="0" width="36" height="36">
<path fill-rule="evenodd" clip-rule="evenodd" d="M0 18C0 8.05888 8.05888 0 18 0C27.9411 0 36 8.05888 36 18C36 27.9411 27.9411 36 18 36C8.05888 36 0 27.9411 0 18Z" fill="white"/>
</mask>
<g mask="url(#mask0_1_3084)">
<path fill-rule="evenodd" clip-rule="evenodd" d="M0 18C0 8.05888 8.05888 0 18 0C27.9411 0 36 8.05888 36 18C36 27.9411 27.9411 36 18 36C8.05888 36 0 27.9411 0 18Z" fill="#359C31"/>
<path fill-rule="evenodd" clip-rule="evenodd" d="M18.001 8.40015C15.3938 8.40015 15.0666 8.41155 14.0426 8.45815C13.0206 8.50495 12.323 8.66675 11.7126 8.90415C11.0812 9.14935 10.5456 9.47736 10.012 10.0112C9.47796 10.5448 9.14995 11.0804 8.90395 11.7116C8.66595 12.3222 8.50395 13.02 8.45795 14.0416C8.41215 15.0656 8.40015 15.393 8.40015 18.0002C8.40015 20.6075 8.41175 20.9337 8.45815 21.9577C8.50515 22.9797 8.66695 23.6773 8.90415 24.2877C9.14955 24.9191 9.47756 25.4547 10.0114 25.9883C10.5448 26.5223 11.0804 26.8511 11.7114 27.0963C12.3222 27.3337 13.02 27.4955 14.0418 27.5423C15.0658 27.5889 15.3928 27.6003 17.9998 27.6003C20.6073 27.6003 20.9335 27.5889 21.9575 27.5423C22.9795 27.4955 23.6779 27.3337 24.2887 27.0963C24.9199 26.8511 25.4547 26.5223 25.9881 25.9883C26.5221 25.4547 26.8501 24.9191 27.0961 24.2879C27.3321 23.6773 27.4941 22.9795 27.5421 21.9579C27.5881 20.9339 27.6001 20.6075 27.6001 18.0002C27.6001 15.393 27.5881 15.0658 27.5421 14.0418C27.4941 13.0198 27.3321 12.3222 27.0961 11.7118C26.8501 11.0804 26.5221 10.5448 25.9881 10.0112C25.4541 9.47716 24.9201 9.14915 24.2881 8.90415C23.6761 8.66675 22.9781 8.50495 21.9561 8.45815C20.9321 8.41155 20.6061 8.40015 17.998 8.40015H18.001ZM17.1402 10.1294C17.3958 10.129 17.681 10.1294 18.0014 10.1294C20.5647 10.1294 20.8685 10.1386 21.8807 10.1846C22.8167 10.2274 23.3247 10.3838 23.6631 10.5152C24.1111 10.6892 24.4305 10.8972 24.7663 11.2332C25.1023 11.5692 25.3103 11.8892 25.4847 12.3372C25.6161 12.6752 25.7727 13.1832 25.8153 14.1192C25.8613 15.1312 25.8713 15.4352 25.8713 17.9972C25.8713 20.5593 25.8613 20.8633 25.8153 21.8753C25.7725 22.8113 25.6161 23.3193 25.4847 23.6573C25.3107 24.1053 25.1023 24.4243 24.7663 24.7601C24.4303 25.0961 24.1113 25.3041 23.6631 25.4781C23.3251 25.6101 22.8167 25.7661 21.8807 25.8089C20.8687 25.8549 20.5647 25.8649 18.0014 25.8649C15.438 25.8649 15.1342 25.8549 14.1222 25.8089C13.1862 25.7657 12.6782 25.6093 12.3396 25.4779C11.8916 25.3039 11.5716 25.0959 11.2356 24.7599C10.8996 24.4239 10.6916 24.1047 10.5172 23.6565C10.3858 23.3185 10.2291 22.8105 10.1865 21.8745C10.1405 20.8625 10.1313 20.5585 10.1313 17.9948C10.1313 15.4312 10.1405 15.1288 10.1865 14.1168C10.2293 13.1808 10.3858 12.6728 10.5172 12.3344C10.6912 11.8864 10.8996 11.5664 11.2356 11.2304C11.5716 10.8944 11.8916 10.6864 12.3396 10.512C12.678 10.38 13.1862 10.224 14.1222 10.181C15.0078 10.141 15.351 10.129 17.1402 10.127V10.1294ZM23.1244 11.7248C22.4884 11.7248 21.9724 12.2402 21.9724 12.8764C21.9724 13.5124 22.4884 14.0284 23.1244 14.0284C23.7604 14.0284 24.2764 13.5124 24.2764 12.8764C24.2764 12.2404 23.7604 11.7244 23.1244 11.7244V11.7248ZM18.0013 13.0691C15.2787 13.0691 13.0713 15.2765 13.0713 17.9991C13.0713 20.7218 15.2787 22.9282 18.0013 22.9282C20.724 22.9282 22.9306 20.7218 22.9306 17.9991C22.9306 15.2765 20.7238 13.0691 18.0011 13.0691H18.0013ZM18.0006 14.8005C19.7678 14.8005 21.2006 16.2332 21.2006 18.0006C21.2006 19.7678 19.7678 21.2006 18.0006 21.2006C16.2332 21.2006 14.8005 19.7678 14.8005 18.0006C14.8005 16.2332 16.2332 14.8005 18.0006 14.8005Z" fill="white"/>
</g>
</svg>
